<svg width="28" height="28" viewBox="0 0 28 28" fill="none" xmlns="http://www.w3.org/2000/svg">
<path d="M13.125 15.9861H14.875V27.9998H13.125V15.9861Z" fill="#D0B4A5"/>
<path d="M14 16.9505C18.6213 16.9505 22.3676 13.1561 22.3676 8.47525C22.3676 3.79444 18.6213 0 14 0V16.9505Z" fill="#2F80ED"/>
<path d="M13.9999 0C9.37863 0 5.63232 3.79444 5.63232 8.47525C5.63232 13.1561 9.37863 16.9505 13.9999 16.9505V0Z" fill="#2F80ED"/>
<path d="M14.0001 11.5335C12.3324 11.5335 10.9805 10.1643 10.9805 8.47536C10.9805 6.78641 12.3324 5.41724 14.0001 5.41724C15.6678 5.41724 17.0197 6.78641 17.0197 8.47536C17.0197 10.1643 15.6678 11.5335 14.0001 11.5335Z" fill="#D0B4A5"/>
</svg>
